<mxfile host="Electron" modified="2024-07-11T18:11:04.841Z" agent="Mozilla/5.0 (Windows NT 10.0; Win64; x64) AppleWebKit/537.36 (KHTML, like Gecko) draw.io/24.6.4 Chrome/124.0.6367.207 Electron/30.0.6 Safari/537.36" etag="2GryydG74ibrXz6DtdyM" version="24.6.4" type="device">
  <diagram name="Seite-1" id="HiZw4RMoXbAx0pPlYACk">
    <mxGraphModel dx="1430" dy="825" grid="1" gridSize="10" guides="1" tooltips="1" connect="1" arrows="1" fold="1" page="1" pageScale="1" pageWidth="827" pageHeight="1169" math="0" shadow="0">
      <root>
        <mxCell id="0" />
        <mxCell id="1" parent="0" />
        <mxCell id="NCMXdh0eizFTBQwmmBKC-3" value="" style="edgeStyle=orthogonalEdgeStyle;rounded=0;orthogonalLoop=1;jettySize=auto;html=1;endArrow=diamond;endFill=1;" parent="1" edge="1">
          <mxGeometry relative="1" as="geometry">
            <Array as="points">
              <mxPoint x="734" y="503" />
              <mxPoint x="820" y="503" />
            </Array>
            <mxPoint x="734" y="550" as="sourcePoint" />
            <mxPoint x="820" y="455" as="targetPoint" />
          </mxGeometry>
        </mxCell>
        <mxCell id="NCMXdh0eizFTBQwmmBKC-16" style="edgeStyle=orthogonalEdgeStyle;rounded=0;orthogonalLoop=1;jettySize=auto;html=1;endArrow=diamond;endFill=1;" parent="1" edge="1">
          <mxGeometry relative="1" as="geometry">
            <mxPoint x="740" y="665" as="sourcePoint" />
            <mxPoint x="740" y="610" as="targetPoint" />
          </mxGeometry>
        </mxCell>
        <mxCell id="NCMXdh0eizFTBQwmmBKC-17" style="edgeStyle=orthogonalEdgeStyle;rounded=0;orthogonalLoop=1;jettySize=auto;html=1;endArrow=diamond;endFill=1;" parent="1" edge="1">
          <mxGeometry relative="1" as="geometry">
            <Array as="points">
              <mxPoint x="870" y="635" />
              <mxPoint x="740" y="635" />
            </Array>
            <mxPoint x="870" y="665" as="sourcePoint" />
            <mxPoint x="740" y="610" as="targetPoint" />
          </mxGeometry>
        </mxCell>
        <mxCell id="NCMXdh0eizFTBQwmmBKC-15" style="edgeStyle=orthogonalEdgeStyle;rounded=0;orthogonalLoop=1;jettySize=auto;html=1;endArrow=diamond;endFill=1;" parent="1" edge="1">
          <mxGeometry relative="1" as="geometry">
            <Array as="points">
              <mxPoint x="600" y="635" />
              <mxPoint x="740" y="635" />
            </Array>
            <mxPoint x="600" y="665" as="sourcePoint" />
            <mxPoint x="740" y="610" as="targetPoint" />
          </mxGeometry>
        </mxCell>
        <mxCell id="akW10-0lo38lLgcbDsr1-2" value="Not used" style="text;html=1;align=center;verticalAlign=middle;whiteSpace=wrap;rounded=0;" parent="1" vertex="1">
          <mxGeometry x="960" y="510" width="60" height="30" as="geometry" />
        </mxCell>
        <mxCell id="XMp51dg_Q-isUH4VMSv2-20" value="&lt;b&gt;hekate_sw&lt;/b&gt;" style="html=1;dropTarget=0;whiteSpace=wrap;" vertex="1" parent="1">
          <mxGeometry x="680" y="110" width="160" height="70" as="geometry" />
        </mxCell>
        <mxCell id="XMp51dg_Q-isUH4VMSv2-21" value="" style="shape=module;jettyWidth=8;jettyHeight=4;" vertex="1" parent="XMp51dg_Q-isUH4VMSv2-20">
          <mxGeometry x="1" width="20" height="20" relative="1" as="geometry">
            <mxPoint x="-27" y="7" as="offset" />
          </mxGeometry>
        </mxCell>
        <mxCell id="XMp51dg_Q-isUH4VMSv2-52" style="edgeStyle=orthogonalEdgeStyle;rounded=0;orthogonalLoop=1;jettySize=auto;html=1;endArrow=diamond;endFill=1;" edge="1" parent="1" source="XMp51dg_Q-isUH4VMSv2-22" target="XMp51dg_Q-isUH4VMSv2-26">
          <mxGeometry relative="1" as="geometry" />
        </mxCell>
        <mxCell id="XMp51dg_Q-isUH4VMSv2-22" value="«git submodule»&lt;br&gt;&lt;a href=&quot;https://github.com/Lora-net/sx1302_hal&quot;&gt;sx1302_hal&lt;/a&gt;" style="html=1;dropTarget=0;whiteSpace=wrap;" vertex="1" parent="1">
          <mxGeometry x="770" y="385" width="160" height="70" as="geometry" />
        </mxCell>
        <mxCell id="XMp51dg_Q-isUH4VMSv2-23" value="" style="shape=module;jettyWidth=8;jettyHeight=4;" vertex="1" parent="XMp51dg_Q-isUH4VMSv2-22">
          <mxGeometry x="1" width="20" height="20" relative="1" as="geometry">
            <mxPoint x="-27" y="7" as="offset" />
          </mxGeometry>
        </mxCell>
        <mxCell id="XMp51dg_Q-isUH4VMSv2-55" style="edgeStyle=orthogonalEdgeStyle;rounded=0;orthogonalLoop=1;jettySize=auto;html=1;endArrow=diamond;endFill=1;" edge="1" parent="1" source="XMp51dg_Q-isUH4VMSv2-24" target="XMp51dg_Q-isUH4VMSv2-20">
          <mxGeometry relative="1" as="geometry">
            <Array as="points">
              <mxPoint x="465" y="230" />
              <mxPoint x="760" y="230" />
            </Array>
          </mxGeometry>
        </mxCell>
        <mxCell id="XMp51dg_Q-isUH4VMSv2-24" value="packet_forwarder" style="html=1;dropTarget=0;whiteSpace=wrap;" vertex="1" parent="1">
          <mxGeometry x="385" y="270" width="160" height="70" as="geometry" />
        </mxCell>
        <mxCell id="XMp51dg_Q-isUH4VMSv2-25" value="" style="shape=module;jettyWidth=8;jettyHeight=4;" vertex="1" parent="XMp51dg_Q-isUH4VMSv2-24">
          <mxGeometry x="1" width="20" height="20" relative="1" as="geometry">
            <mxPoint x="-27" y="7" as="offset" />
          </mxGeometry>
        </mxCell>
        <mxCell id="XMp51dg_Q-isUH4VMSv2-56" style="edgeStyle=orthogonalEdgeStyle;rounded=0;orthogonalLoop=1;jettySize=auto;html=1;endArrow=diamond;endFill=1;" edge="1" parent="1" source="XMp51dg_Q-isUH4VMSv2-26" target="XMp51dg_Q-isUH4VMSv2-20">
          <mxGeometry relative="1" as="geometry" />
        </mxCell>
        <mxCell id="XMp51dg_Q-isUH4VMSv2-26" value="concentrator" style="html=1;dropTarget=0;whiteSpace=wrap;" vertex="1" parent="1">
          <mxGeometry x="680" y="270" width="160" height="70" as="geometry" />
        </mxCell>
        <mxCell id="XMp51dg_Q-isUH4VMSv2-27" value="" style="shape=module;jettyWidth=8;jettyHeight=4;" vertex="1" parent="XMp51dg_Q-isUH4VMSv2-26">
          <mxGeometry x="1" width="20" height="20" relative="1" as="geometry">
            <mxPoint x="-27" y="7" as="offset" />
          </mxGeometry>
        </mxCell>
        <mxCell id="XMp51dg_Q-isUH4VMSv2-57" style="edgeStyle=orthogonalEdgeStyle;rounded=0;orthogonalLoop=1;jettySize=auto;html=1;endArrow=diamond;endFill=1;" edge="1" parent="1" source="XMp51dg_Q-isUH4VMSv2-28" target="XMp51dg_Q-isUH4VMSv2-20">
          <mxGeometry relative="1" as="geometry">
            <Array as="points">
              <mxPoint x="1161" y="230" />
              <mxPoint x="760" y="230" />
            </Array>
          </mxGeometry>
        </mxCell>
        <mxCell id="XMp51dg_Q-isUH4VMSv2-28" value="internet" style="html=1;dropTarget=0;whiteSpace=wrap;" vertex="1" parent="1">
          <mxGeometry x="1081" y="270" width="160" height="70" as="geometry" />
        </mxCell>
        <mxCell id="XMp51dg_Q-isUH4VMSv2-29" value="" style="shape=module;jettyWidth=8;jettyHeight=4;" vertex="1" parent="XMp51dg_Q-isUH4VMSv2-28">
          <mxGeometry x="1" width="20" height="20" relative="1" as="geometry">
            <mxPoint x="-27" y="7" as="offset" />
          </mxGeometry>
        </mxCell>
        <mxCell id="XMp51dg_Q-isUH4VMSv2-50" style="edgeStyle=orthogonalEdgeStyle;rounded=0;orthogonalLoop=1;jettySize=auto;html=1;endArrow=diamond;endFill=1;" edge="1" parent="1" source="XMp51dg_Q-isUH4VMSv2-30" target="XMp51dg_Q-isUH4VMSv2-24">
          <mxGeometry relative="1" as="geometry" />
        </mxCell>
        <mxCell id="XMp51dg_Q-isUH4VMSv2-30" value="packet_forwarder.py" style="html=1;dropTarget=0;whiteSpace=wrap;" vertex="1" parent="1">
          <mxGeometry x="385" y="380" width="160" height="70" as="geometry" />
        </mxCell>
        <mxCell id="XMp51dg_Q-isUH4VMSv2-31" value="" style="shape=module;jettyWidth=8;jettyHeight=4;" vertex="1" parent="XMp51dg_Q-isUH4VMSv2-30">
          <mxGeometry x="1" width="20" height="20" relative="1" as="geometry">
            <mxPoint x="-27" y="7" as="offset" />
          </mxGeometry>
        </mxCell>
        <mxCell id="XMp51dg_Q-isUH4VMSv2-51" style="edgeStyle=orthogonalEdgeStyle;rounded=0;orthogonalLoop=1;jettySize=auto;html=1;endArrow=diamond;endFill=1;" edge="1" parent="1" source="XMp51dg_Q-isUH4VMSv2-32" target="XMp51dg_Q-isUH4VMSv2-26">
          <mxGeometry relative="1" as="geometry" />
        </mxCell>
        <mxCell id="XMp51dg_Q-isUH4VMSv2-32" value="libloragw_custom" style="html=1;dropTarget=0;whiteSpace=wrap;" vertex="1" parent="1">
          <mxGeometry x="580" y="385" width="160" height="70" as="geometry" />
        </mxCell>
        <mxCell id="XMp51dg_Q-isUH4VMSv2-33" value="" style="shape=module;jettyWidth=8;jettyHeight=4;" vertex="1" parent="XMp51dg_Q-isUH4VMSv2-32">
          <mxGeometry x="1" width="20" height="20" relative="1" as="geometry">
            <mxPoint x="-27" y="7" as="offset" />
          </mxGeometry>
        </mxCell>
        <mxCell id="XMp51dg_Q-isUH4VMSv2-53" style="edgeStyle=orthogonalEdgeStyle;rounded=0;orthogonalLoop=1;jettySize=auto;html=1;endArrow=diamond;endFill=1;" edge="1" parent="1" source="XMp51dg_Q-isUH4VMSv2-34" target="XMp51dg_Q-isUH4VMSv2-28">
          <mxGeometry relative="1" as="geometry" />
        </mxCell>
        <mxCell id="XMp51dg_Q-isUH4VMSv2-34" value="NB-IoT module" style="html=1;dropTarget=0;whiteSpace=wrap;" vertex="1" parent="1">
          <mxGeometry x="990" y="380" width="160" height="70" as="geometry" />
        </mxCell>
        <mxCell id="XMp51dg_Q-isUH4VMSv2-35" value="" style="shape=module;jettyWidth=8;jettyHeight=4;" vertex="1" parent="XMp51dg_Q-isUH4VMSv2-34">
          <mxGeometry x="1" width="20" height="20" relative="1" as="geometry">
            <mxPoint x="-27" y="7" as="offset" />
          </mxGeometry>
        </mxCell>
        <mxCell id="XMp51dg_Q-isUH4VMSv2-54" style="edgeStyle=orthogonalEdgeStyle;rounded=0;orthogonalLoop=1;jettySize=auto;html=1;endArrow=diamond;endFill=1;" edge="1" parent="1" source="XMp51dg_Q-isUH4VMSv2-36" target="XMp51dg_Q-isUH4VMSv2-28">
          <mxGeometry relative="1" as="geometry" />
        </mxCell>
        <mxCell id="XMp51dg_Q-isUH4VMSv2-36" value="WiFi" style="html=1;dropTarget=0;whiteSpace=wrap;" vertex="1" parent="1">
          <mxGeometry x="1170" y="380" width="160" height="70" as="geometry" />
        </mxCell>
        <mxCell id="XMp51dg_Q-isUH4VMSv2-37" value="" style="shape=module;jettyWidth=8;jettyHeight=4;" vertex="1" parent="XMp51dg_Q-isUH4VMSv2-36">
          <mxGeometry x="1" width="20" height="20" relative="1" as="geometry">
            <mxPoint x="-27" y="7" as="offset" />
          </mxGeometry>
        </mxCell>
        <mxCell id="XMp51dg_Q-isUH4VMSv2-49" style="edgeStyle=orthogonalEdgeStyle;rounded=0;orthogonalLoop=1;jettySize=auto;html=1;endArrow=diamond;endFill=1;" edge="1" parent="1" source="XMp51dg_Q-isUH4VMSv2-39" target="XMp51dg_Q-isUH4VMSv2-22">
          <mxGeometry relative="1" as="geometry" />
        </mxCell>
        <mxCell id="XMp51dg_Q-isUH4VMSv2-39" value="packet_forwarder" style="html=1;dropTarget=0;whiteSpace=wrap;" vertex="1" parent="1">
          <mxGeometry x="860" y="540" width="160" height="70" as="geometry" />
        </mxCell>
        <mxCell id="XMp51dg_Q-isUH4VMSv2-40" value="" style="shape=module;jettyWidth=8;jettyHeight=4;" vertex="1" parent="XMp51dg_Q-isUH4VMSv2-39">
          <mxGeometry x="1" width="20" height="20" relative="1" as="geometry">
            <mxPoint x="-27" y="7" as="offset" />
          </mxGeometry>
        </mxCell>
        <mxCell id="XMp51dg_Q-isUH4VMSv2-41" value="libloragw" style="html=1;dropTarget=0;whiteSpace=wrap;" vertex="1" parent="1">
          <mxGeometry x="650" y="540" width="160" height="70" as="geometry" />
        </mxCell>
        <mxCell id="XMp51dg_Q-isUH4VMSv2-42" value="" style="shape=module;jettyWidth=8;jettyHeight=4;" vertex="1" parent="XMp51dg_Q-isUH4VMSv2-41">
          <mxGeometry x="1" width="20" height="20" relative="1" as="geometry">
            <mxPoint x="-27" y="7" as="offset" />
          </mxGeometry>
        </mxCell>
        <mxCell id="XMp51dg_Q-isUH4VMSv2-43" value="sx1302" style="html=1;dropTarget=0;whiteSpace=wrap;" vertex="1" parent="1">
          <mxGeometry x="545" y="660" width="120" height="50" as="geometry" />
        </mxCell>
        <mxCell id="XMp51dg_Q-isUH4VMSv2-44" value="" style="shape=module;jettyWidth=8;jettyHeight=4;" vertex="1" parent="XMp51dg_Q-isUH4VMSv2-43">
          <mxGeometry x="1" width="20" height="20" relative="1" as="geometry">
            <mxPoint x="-27" y="7" as="offset" />
          </mxGeometry>
        </mxCell>
        <mxCell id="XMp51dg_Q-isUH4VMSv2-45" value="sx1250" style="html=1;dropTarget=0;whiteSpace=wrap;" vertex="1" parent="1">
          <mxGeometry x="680" y="660" width="123" height="50" as="geometry" />
        </mxCell>
        <mxCell id="XMp51dg_Q-isUH4VMSv2-46" value="" style="shape=module;jettyWidth=8;jettyHeight=4;" vertex="1" parent="XMp51dg_Q-isUH4VMSv2-45">
          <mxGeometry x="1" width="20" height="20" relative="1" as="geometry">
            <mxPoint x="-27" y="7" as="offset" />
          </mxGeometry>
        </mxCell>
        <mxCell id="XMp51dg_Q-isUH4VMSv2-47" value="sx1261" style="html=1;dropTarget=0;whiteSpace=wrap;" vertex="1" parent="1">
          <mxGeometry x="820" y="660" width="130" height="50" as="geometry" />
        </mxCell>
        <mxCell id="XMp51dg_Q-isUH4VMSv2-48" value="" style="shape=module;jettyWidth=8;jettyHeight=4;" vertex="1" parent="XMp51dg_Q-isUH4VMSv2-47">
          <mxGeometry x="1" width="20" height="20" relative="1" as="geometry">
            <mxPoint x="-27" y="7" as="offset" />
          </mxGeometry>
        </mxCell>
      </root>
    </mxGraphModel>
  </diagram>
</mxfile>
